<?xml version="1.0" encoding="utf-8"?>
<!-- Generator: Adobe Illustrator 16.0.0, SVG Export Plug-In . SVG Version: 6.00 Build 0)  -->
<!DOCTYPE svg PUBLIC "-//W3C//DTD SVG 1.1//EN" "http://www.w3.org/Graphics/SVG/1.1/DTD/svg11.dtd">
<svg version="1.1" id="Layer_1" xmlns="http://www.w3.org/2000/svg" xmlns:xlink="http://www.w3.org/1999/xlink" x="0px" y="0px"
	 width="20px" height="20px" viewBox="0 0 20 20" enable-background="new 0 0 20 20" xml:space="preserve">
<g>
	<g>
		<linearGradient id="SVGID_1_" gradientUnits="userSpaceOnUse" x1="10.1333" y1="21.3779" x2="10.1333" y2="-11.1443">
			<stop  offset="0" style="stop-color:#D8E028"/>
			<stop  offset="0.2434" style="stop-color:#BED634"/>
			<stop  offset="0.5377" style="stop-color:#A4CD3C"/>
			<stop  offset="0.7994" style="stop-color:#94C840"/>
			<stop  offset="1" style="stop-color:#8EC641"/>
		</linearGradient>
		<path fill="url(#SVGID_1_)" d="M1.958,15.28V5.84l8.175-4.719l8.175,4.719v9.44L10.133,20L1.958,15.28z M3.641,6.813v7.494
			l6.492,3.753l6.491-3.753V6.813l-6.491-3.749L3.641,6.813z"/>
	</g>
</g>
<g>
	<path fill="#FFFFFF" d="M9.083,13.771c0,0.527-0.271,0.79-0.815,0.79H5.772c-0.543,0-0.814-0.263-0.814-0.79V8.97
		c0-0.527,0.271-0.791,0.814-0.791h2.496c0.544,0,0.815,0.264,0.815,0.791v2.344l-0.399,0.399H6.341V13.5h1.358v-1.061h1.384V13.771
		z M7.699,10.771V9.242H6.341v1.529H7.699z"/>
	<path fill="#B0D139" d="M10.258,14.562c0.093-0.959,0.157-1.729,0.191-2.306c0.051-0.86,0.102-1.972,0.153-3.337
		c0.038-1.044,0.057-1.792,0.057-2.243V5.937c0.492,0.013,0.918,0.019,1.277,0.019c0.345,0,0.798-0.009,1.357-0.029
		c0.561-0.019,1.087-0.028,1.58-0.028c0.564,0,1.06,0.034,1.483,0.102c0.426,0.067,0.823,0.207,1.191,0.417
		c0.368,0.211,0.677,0.486,0.925,0.828c0.25,0.341,0.439,0.741,0.57,1.198c0.13,0.457,0.196,0.928,0.196,1.412
		c0,0.476-0.051,0.935-0.153,1.375c-0.101,0.44-0.242,0.838-0.424,1.19c-0.18,0.354-0.392,0.658-0.633,0.915
		c-0.244,0.254-0.521,0.473-0.833,0.653c-0.231,0.134-0.465,0.24-0.7,0.316c-0.237,0.076-0.559,0.137-0.968,0.184
		c-0.455,0.05-0.97,0.074-1.548,0.074l-2.552-0.018C11.188,14.544,10.798,14.549,10.258,14.562z M12.99,12.66
		c0.232,0.021,0.474,0.031,0.727,0.031c0.43,0,0.813-0.037,1.15-0.112c0.336-0.077,0.632-0.239,0.886-0.488
		c0.256-0.247,0.444-0.566,0.566-0.958c0.121-0.388,0.182-0.788,0.182-1.197c0-0.501-0.091-0.923-0.271-1.267
		c-0.182-0.343-0.423-0.583-0.724-0.717c-0.303-0.135-0.711-0.202-1.229-0.202c-0.304,0-0.662,0.012-1.076,0.038L12.99,12.66z"/>
</g>
</svg>
